  0
SECTION
  2
HEADER
  9
$ACADVER
  1
AC1009
  9
$INSBASE
 10
0.0
 20
0.0
 30
0.0
  9
$EXTMIN
 10
0.0
 20
0.0
 30
0.0
  9
$EXTMAX
 10
0.0
 20
0.0
 30
0.0
  0
ENDSEC
  0
SECTION
  2
TABLES
  0
TABLE
  2
VPORT
 70
0
  0
ENDTAB
  0
TABLE
  2
LTYPE
 70
1
  0
LTYPE
  2
CONTINUOUS
 70
0
  3
Solid line
 72
65
 73
0
 40
0.0
  0
ENDTAB
  0
TABLE
  2
LAYER
 70
1
  0
LAYER
  2
0
 70
64
 62
7
  6
continuous
  0
ENDTAB
  0
TABLE
  2
STYLE
 70
1
  0
STYLE
  2
STANDARD
 70
0
 40
0
 41
1.0
 50
0.0
 71
0
 42
1
 3
ARIAL.TTF
 4

  0
ENDTAB
  0
TABLE
  2
VIEW
 70
0
  0
ENDTAB
  0
ENDSEC
  0
SECTION
  2
BLOCKS
  0
BLOCK
  8
0
  2
FACEFEAT
 70
0
 10
0.0
 20
0.0
 30
0.0
  3
FACEFEAT
  0
LINE
  8
0
 62
0
 10
-62.00000089406974
 20
22.99363905356654
 30
0.0
 11
-60.00000089406974
 21
24.993639053566543
 31
0.0
  0
LINE
  8
0
 62
0
 10
-62.0000008940697
 20
22.9936390535665
 30
0.0
 11
-83.0000012665987
 21
22.9936390535665
 31
0.0
  0
LINE
  8
0
 62
0
 10
-60.0000008940697
 20
27.993639157874703
 30
0.0
 11
-62.0000008940697
 21
29.993639157874696
 31
0.0
  0
LINE
  8
0
 62
0
 10
-60.0000008940697
 20
27.9936391578747
 30
0.0
 11
-60.0000008940697
 21
24.9936390535665
 31
0.0
  0
LINE
  8
0
 62
0
 10
-83.00000126659867
 20
29.993639157874675
 30
0.0
 11
-85.00000126659867
 21
27.993639157874675
 31
0.0
  0
LINE
  8
0
 62
0
 10
-83.0000012665987
 20
29.9936391578747
 30
0.0
 11
-62.0000008940697
 21
29.9936391578747
 31
0.0
  0
LINE
  8
0
 62
0
 10
-85.00000126659866
 20
24.993639053566543
 30
0.0
 11
-83.00000126659866
 21
22.993639053566536
 31
0.0
  0
LINE
  8
0
 62
0
 10
-85.00000126659873
 20
-28.000000447034825
 30
0.0
 11
-83.00000126659873
 21
-30.00000044703483
 31
0.0
  0
LINE
  8
0
 62
0
 10
-85.0000012665987
 20
-28.0000004470348
 30
0.0
 11
-85.0000012665987
 21
-25.0000003427267
 31
0.0
  0
LINE
  8
0
 62
0
 10
-83.00000126659867
 20
-23.000000342726718
 30
0.0
 11
-85.00000126659867
 21
-25.000000342726725
 31
0.0
  0
LINE
  8
0
 62
0
 10
-83.0000012665987
 20
-23.0000003427267
 30
0.0
 11
-62.0000008940697
 21
-23.0000003427267
 31
0.0
  0
LINE
  8
0
 62
0
 10
-60.00000089406969
 20
-25.000000342726693
 30
0.0
 11
-62.000000894069686
 21
-23.00000034272669
 31
0.0
  0
LINE
  8
0
 62
0
 10
-62.00000089406966
 20
-30.000000447034836
 30
0.0
 11
-60.000000894069665
 21
-28.000000447034836
 31
0.0
  0
LINE
  8
0
 62
0
 10
-62.0000008940697
 20
-30.0000004470348
 30
0.0
 11
-83.0000012665987
 21
-30.0000004470348
 31
0.0
  0
LINE
  8
0
 62
0
 10
90.0
 20
-10.0
 30
0.0
 11
90.0
 21
9.99999999999999
 31
0.0
  0
LINE
  8
0
 62
0
 10
90.0
 20
9.99999999999999
 30
0.0
 11
14.69608614491959
 21
30.4968193554199
 31
0.0
  0
LINE
  8
0
 62
0
 10
14.6960861449196
 20
30.4968193554199
 30
0.0
 11
0.000359447173565286
 21
30.4968193554199
 31
0.0
  0
LINE
  8
0
 62
0
 10
0.0003594471735632651
 20
30.4968193554199
 30
0.0
 11
0.00035944717356351
 21
34.4968193554199
 31
0.0
  0
LINE
  8
0
 62
0
 10
0.00035944717356351
 20
34.4968193554199
 30
0.0
 11
-124.999640552826
 21
34.4968193554199
 31
0.0
  0
LINE
  8
0
 62
0
 10
-124.999640552826
 20
34.4968193554199
 30
0.0
 11
-124.999640552826
 21
-34.5031806445801
 31
0.0
  0
LINE
  8
0
 62
0
 10
-124.999640552826
 20
-34.5031806445801
 30
0.0
 11
0.000359447173565286
 21
-34.50318064458011
 31
0.0
  0
LINE
  8
0
 62
0
 10
0.000359447173559069
 20
-34.5031806445801
 30
0.0
 11
0.00035944717355963746
 21
-30.5031806445801
 31
0.0
  0
LINE
  8
0
 62
0
 10
0.00035944717355818057
 20
-30.5031806445801
 30
0.0
 11
14.6922709762564
 21
-30.5031806445801
 31
0.0
  0
LINE
  8
0
 62
0
 10
14.692270976256395
 20
-30.503180644580127
 30
0.0
 11
90.0
 21
-10.0
 31
0.0
  0
CIRCLE
  8
0
 62
0
 10
-37.5996405528264
 20
13.3968193554199
 30
0.0
 40
1.6
  0
LINE
  8
0
 62
0
 10
5.0
 20
-3.0
 30
0.0
 11
85.0
 21
-3.0
 31
0.0
  0
LINE
  8
0
 62
0
 10
85.0
 20
-3.0
 30
0.0
 11
85.0
 21
-7.0
 31
0.0
  0
LINE
  8
0
 62
0
 10
85.0
 20
-7.0
 30
0.0
 11
17.02057855205679
 21
-25.50318064458008
 31
0.0
  0
LINE
  8
0
 62
0
 10
17.0205785520568
 20
-25.5031806445801
 30
0.0
 11
5.0
 21
-25.5031806445801
 31
0.0
  0
LINE
  8
0
 62
0
 10
4.999999999999998
 20
-25.5031806445801
 30
0.0
 11
5.0
 21
-3.0
 31
0.0
  0
LINE
  8
0
 62
0
 10
-89.9996405528264
 20
-9.61525593583058
 30
0.0
 11
-89.9996405528264
 21
9.608894646670398
 31
0.0
  0
LINE
  8
0
 62
0
 10
-89.9996405528264
 20
9.6088946466704
 30
0.0
 11
-34.9996405528264
 21
9.6088946466704
 31
0.0
  0
LINE
  8
0
 62
0
 10
-34.9996405528264
 20
9.6088946466704
 30
0.0
 11
-34.9996405528264
 21
-9.615255935830582
 31
0.0
  0
LINE
  8
0
 62
0
 10
-34.9996405528264
 20
-9.61525593583057
 30
0.0
 11
-89.9996405528264
 21
-9.61525593583057
 31
0.0
  0
LINE
  8
0
 62
0
 10
-60.0000008940697
 20
-25.0000003427267
 30
0.0
 11
-60.0000008940697
 21
-28.0000004470348
 31
0.0
  0
CIRCLE
  8
0
 62
0
 10
-87.3996405528264
 20
-13.4031806445801
 30
0.0
 40
1.6
  0
LINE
  8
0
 62
0
 10
-85.0000012665987
 20
24.9936390535665
 30
0.0
 11
-85.0000012665987
 21
27.9936391578747
 31
0.0
  0
CIRCLE
  8
0
 62
0
 10
-37.5996405528264
 20
-13.4031806445801
 30
0.0
 40
1.6
  0
CIRCLE
  8
0
 62
0
 10
-87.3996405528264
 20
13.3968193554199
 30
0.0
 40
1.6
  0
LINE
  8
0
 62
0
 10
85.0
 20
7.0
 30
0.0
 11
85.0
 21
3.0
 31
0.0
  0
LINE
  8
0
 62
0
 10
85.0
 20
3.0
 30
0.0
 11
5.0
 21
3.0
 31
0.0
  0
LINE
  8
0
 62
0
 10
5.0
 20
3.0
 30
0.0
 11
5.000000000000001
 21
25.4968193554199
 31
0.0
  0
LINE
  8
0
 62
0
 10
5.0
 20
25.4968193554199
 30
0.0
 11
17.0439494937926
 21
25.4968193554199
 31
0.0
  0
LINE
  8
0
 62
0
 10
17.043949493792596
 20
25.49681935541991
 30
0.0
 11
85.0
 21
7.0
 31
0.0
  0
LINE
  8
0
 62
0
 10
-12.37919918624394
 20
-4.77910265578703
 30
0.0
 11
-12.382514019589392
 21
-7.671325544855689
 31
0.0
  0
LINE
  8
0
 62
0
 10
-12.3825140195894
 20
-7.671325544855689
 30
0.0
 11
-17.3825107356173
 21
-7.665594950611351
 31
0.0
  0
LINE
  8
0
 62
0
 10
-17.382510735617267
 20
-7.66559495061135
 30
0.0
 11
-17.37945389695011
 21
-4.9984748151551
 31
0.0
  0
POLYLINE
  8
0
 62
0
 70
0
 66
1
 10
0.0
 20
0.0
 30
0.0
  0
VERTEX
  8
0
 10
-17.3794538969501
 20
-4.9984748151551
 30
0.0
  0
VERTEX
  8
0
 10
-17.3104476668721
 20
-4.30619304865572
 30
0.0
  0
SEQEND
  8
0
  0
POLYLINE
  8
0
 62
0
 70
0
 66
1
 10
0.0
 20
0.0
 30
0.0
  0
VERTEX
  8
0
 10
-17.3104476668721
 20
-4.30619304865572
 30
0.0
  0
VERTEX
  8
0
 10
-17.1460647118218
 20
-3.71974976782107
 30
0.0
  0
SEQEND
  8
0
  0
POLYLINE
  8
0
 62
0
 70
0
 66
1
 10
0.0
 20
0.0
 30
0.0
  0
VERTEX
  8
0
 10
-17.1460647118218
 20
-3.71974976782107
 30
0.0
  0
VERTEX
  8
0
 10
-16.6543654941415
 20
-3.22577086723263
 30
0.0
  0
SEQEND
  8
0
  0
POLYLINE
  8
0
 62
0
 70
0
 66
1
 10
0.0
 20
0.0
 30
0.0
  0
VERTEX
  8
0
 10
-16.6543654941415
 20
-3.22577086723263
 30
0.0
  0
VERTEX
  8
0
 10
-15.9549778154496
 20
-3.0458081321321
 30
0.0
  0
SEQEND
  8
0
  0
POLYLINE
  8
0
 62
0
 70
0
 66
1
 10
0.0
 20
0.0
 30
0.0
  0
VERTEX
  8
0
 10
-15.9549778154496
 20
-3.0458081321321
 30
0.0
  0
VERTEX
  8
0
 10
-15.1640025654359
 20
-3.3025129538026
 30
0.0
  0
SEQEND
  8
0
  0
POLYLINE
  8
0
 62
0
 70
0
 66
1
 10
0.0
 20
0.0
 30
0.0
  0
VERTEX
  8
0
 10
-15.1640025654359
 20
-3.3025129538026
 30
0.0
  0
VERTEX
  8
0
 10
-14.7181157147724
 20
-4.09429405395076
 30
0.0
  0
SEQEND
  8
0
  0
POLYLINE
  8
0
 62
0
 70
0
 66
1
 10
0.0
 20
0.0
 30
0.0
  0
VERTEX
  8
0
 10
-14.7181157147724
 20
-4.09429405395076
 30
0.0
  0
VERTEX
  8
0
 10
-14.3832554311197
 20
-3.5557954728151
 30
0.0
  0
SEQEND
  8
0
  0
POLYLINE
  8
0
 62
0
 70
0
 66
1
 10
0.0
 20
0.0
 30
0.0
  0
VERTEX
  8
0
 10
-14.3832554311197
 20
-3.5557954728151
 30
0.0
  0
VERTEX
  8
0
 10
-13.6223664513651
 20
-3.28040579307283
 30
0.0
  0
SEQEND
  8
0
  0
POLYLINE
  8
0
 62
0
 70
0
 66
1
 10
0.0
 20
0.0
 30
0.0
  0
VERTEX
  8
0
 10
-13.6223664513651
 20
-3.28040579307283
 30
0.0
  0
VERTEX
  8
0
 10
-12.7360457491652
 20
-3.67023489677218
 30
0.0
  0
SEQEND
  8
0
  0
POLYLINE
  8
0
 62
0
 70
0
 66
1
 10
0.0
 20
0.0
 30
0.0
  0
VERTEX
  8
0
 10
-12.7360457491652
 20
-3.67023489677218
 30
0.0
  0
VERTEX
  8
0
 10
-12.379199186244
 20
-4.77910265578703
 30
0.0
  0
SEQEND
  8
0
  0
LINE
  8
0
 62
0
 10
-16.549403957192187
 20
-0.920297352898696
 30
0.0
 11
-16.547386913726882
 21
0.8395918091320282
 31
0.0
  0
LINE
  8
0
 62
0
 10
-16.547386913726896
 20
0.8395918091320376
 30
0.0
 11
-17.372480241909095
 21
1.086103994158402
 31
0.0
  0
LINE
  8
0
 62
0
 10
-17.37248024190907
 20
1.08610399415839
 30
0.0
 11
-17.370627374763888
 21
2.70274779166902
 31
0.0
  0
LINE
  8
0
 62
0
 10
-17.3706273747639
 20
2.7027477916690223
 30
0.0
 11
-12.372784517395402
 21
0.8177555075197518
 31
0.0
  0
LINE
  8
0
 62
0
 10
-12.372784517395477
 20
0.8177555075197601
 30
0.0
 11
-12.37471556445639
 21
-0.8671009927629781
 31
0.0
  0
LINE
  8
0
 62
0
 10
-12.374715564456391
 20
-0.8671009927630021
 30
0.0
 11
-17.3768661391436
 21
-2.740632088423565
 31
0.0
  0
LINE
  8
0
 62
0
 10
-17.376866139143633
 20
-2.7406320884235704
 30
0.0
 11
-17.375056272933204
 21
-1.16150700597115
 31
0.0
  0
LINE
  8
0
 62
0
 10
-17.375056272933207
 20
-1.1615070059711285
 30
0.0
 11
-16.549403957192208
 21
-0.9202973528986694
 31
0.0
  0
LINE
  8
0
 62
0
 10
-12.367128194139333
 20
5.75295009630954
 30
0.0
 11
-12.370071669810951
 21
3.18474022761561
 31
0.0
  0
LINE
  8
0
 62
0
 10
-12.370071669811
 20
3.1847402276156114
 30
0.0
 11
-17.3700683858389
 21
3.190470821859949
 31
0.0
  0
LINE
  8
0
 62
0
 10
-17.37006838583884
 20
3.19047082185995
 30
0.0
 11
-17.36828979241447
 21
4.74231010794826
 31
0.0
  0
LINE
  8
0
 62
0
 10
-17.3682897924145
 20
4.742310107948259
 30
0.0
 11
-15.5129021312476
 21
4.740183611781169
 31
0.0
  0
LINE
  8
0
 62
0
 10
-15.512902131247557
 20
4.74018361178117
 30
0.0
 11
-15.511932698106488
 21
5.58602303350259
 31
0.0
  0
POLYLINE
  8
0
 62
0
 70
0
 66
1
 10
0.0
 20
0.0
 30
0.0
  0
VERTEX
  8
0
 10
-15.5119326981065
 20
5.58602303350259
 30
0.0
  0
VERTEX
  8
0
 10
-15.0840120455847
 20
6.97366368495984
 30
0.0
  0
SEQEND
  8
0
  0
POLYLINE
  8
0
 62
0
 70
0
 66
1
 10
0.0
 20
0.0
 30
0.0
  0
VERTEX
  8
0
 10
-15.0840120455847
 20
6.97366368495984
 30
0.0
  0
VERTEX
  8
0
 10
-13.8999964771038
 20
7.42933153595934
 30
0.0
  0
SEQEND
  8
0
  0
POLYLINE
  8
0
 62
0
 70
0
 66
1
 10
0.0
 20
0.0
 30
0.0
  0
VERTEX
  8
0
 10
-13.8999964771038
 20
7.42933153595934
 30
0.0
  0
VERTEX
  8
0
 10
-12.7647344695576
 20
7.00852308771708
 30
0.0
  0
SEQEND
  8
0
  0
POLYLINE
  8
0
 62
0
 70
0
 66
1
 10
0.0
 20
0.0
 30
0.0
  0
VERTEX
  8
0
 10
-12.7647344695576
 20
7.00852308771708
 30
0.0
  0
VERTEX
  8
0
 10
-12.3671281941394
 20
5.75295009630954
 30
0.0
  0
SEQEND
  8
0
  0
LINE
  8
0
 62
0
 10
-17.36106204752381
 20
11.0485846716165
 30
0.0
 11
-17.35906845898962
 21
12.7880091883511
 31
0.0
  0
LINE
  8
0
 62
0
 10
-17.359068458989622
 20
12.78800918835106
 30
0.0
 11
-15.992179934204106
 21
12.107721650596286
 31
0.0
  0
POLYLINE
  8
0
 62
0
 70
0
 66
1
 10
0.0
 20
0.0
 30
0.0
  0
VERTEX
  8
0
 10
-15.9921799342041
 20
12.1077216505963
 30
0.0
  0
VERTEX
  8
0
 10
-15.1605898973004
 20
11.578122686301
 30
0.0
  0
SEQEND
  8
0
  0
POLYLINE
  8
0
 62
0
 70
0
 66
1
 10
0.0
 20
0.0
 30
0.0
  0
VERTEX
  8
0
 10
-15.1605898973004
 20
11.578122686301
 30
0.0
  0
VERTEX
  8
0
 10
-14.7826778954141
 20
10.9944696426941
 30
0.0
  0
SEQEND
  8
0
  0
POLYLINE
  8
0
 62
0
 70
0
 66
1
 10
0.0
 20
0.0
 30
0.0
  0
VERTEX
  8
0
 10
-14.7826778954141
 20
10.9944696426941
 30
0.0
  0
VERTEX
  8
0
 10
-14.5196168000015
 20
11.3795672610903
 30
0.0
  0
SEQEND
  8
0
  0
POLYLINE
  8
0
 62
0
 70
0
 66
1
 10
0.0
 20
0.0
 30
0.0
  0
VERTEX
  8
0
 10
-14.5196168000015
 20
11.3795672610903
 30
0.0
  0
VERTEX
  8
0
 10
-14.0179477552261
 20
11.6450246820262
 30
0.0
  0
SEQEND
  8
0
  0
POLYLINE
  8
0
 62
0
 70
0
 66
1
 10
0.0
 20
0.0
 30
0.0
  0
VERTEX
  8
0
 10
-14.0179477552261
 20
11.6450246820262
 30
0.0
  0
VERTEX
  8
0
 10
-13.5298668863808
 20
11.958243412647
 30
0.0
  0
SEQEND
  8
0
  0
POLYLINE
  8
0
 62
0
 70
0
 66
1
 10
0.0
 20
0.0
 30
0.0
  0
VERTEX
  8
0
 10
-13.5298668863808
 20
11.958243412647
 30
0.0
  0
VERTEX
  8
0
 10
-13.3791265342221
 20
12.5446999453489
 30
0.0
  0
SEQEND
  8
0
  0
LINE
  8
0
 62
0
 10
-13.379126534222122
 20
12.5446999453489
 30
0.0
 11
-13.379036627523977
 21
12.623144374723
 31
0.0
  0
LINE
  8
0
 62
0
 10
-13.3790366275239
 20
12.623144374722978
 30
0.0
 11
-12.3217385424643
 21
12.621932584662924
 31
0.0
  0
POLYLINE
  8
0
 62
0
 70
0
 66
1
 10
0.0
 20
0.0
 30
0.0
  0
VERTEX
  8
0
 10
-12.3217385424643
 20
12.6219325846629
 30
0.0
  0
VERTEX
  8
0
 10
-12.4118495960725
 20
11.3703327319413
 30
0.0
  0
SEQEND
  8
0
  0
POLYLINE
  8
0
 62
0
 70
0
 66
1
 10
0.0
 20
0.0
 30
0.0
  0
VERTEX
  8
0
 10
-12.4118495960725
 20
11.3703327319413
 30
0.0
  0
VERTEX
  8
0
 10
-12.7058250801829
 20
10.7942685275931
 30
0.0
  0
SEQEND
  8
0
  0
POLYLINE
  8
0
 62
0
 70
0
 66
1
 10
0.0
 20
0.0
 30
0.0
  0
VERTEX
  8
0
 10
-12.7058250801829
 20
10.7942685275931
 30
0.0
  0
VERTEX
  8
0
 10
-13.374713028175
 20
10.4437394512611
 30
0.0
  0
SEQEND
  8
0
  0
POLYLINE
  8
0
 62
0
 70
0
 66
1
 10
0.0
 20
0.0
 30
0.0
  0
VERTEX
  8
0
 10
-13.374713028175
 20
10.4437394512611
 30
0.0
  0
VERTEX
  8
0
 10
-14.1390988792573
 20
10.0933198269478
 30
0.0
  0
SEQEND
  8
0
  0
POLYLINE
  8
0
 62
0
 70
0
 66
1
 10
0.0
 20
0.0
 30
0.0
  0
VERTEX
  8
0
 10
-14.1390988792573
 20
10.0933198269478
 30
0.0
  0
VERTEX
  8
0
 10
-14.2827053606851
 20
9.77970628747937
 30
0.0
  0
SEQEND
  8
0
  0
LINE
  8
0
 62
0
 10
-14.2827053606851
 20
9.779706287479373
 30
0.0
 11
-12.36251557228
 21
9.777505520324027
 31
0.0
  0
LINE
  8
0
 62
0
 10
-12.362515572280074
 20
9.77750552032402
 30
0.0
 11
-12.364282440288306
 21
8.2358967687456
 31
0.0
  0
LINE
  8
0
 62
0
 10
-12.3642824402883
 20
8.2358967687456
 30
0.0
 11
-17.3642791563162
 21
8.241627362989938
 31
0.0
  0
LINE
  8
0
 62
0
 10
-17.36427915631619
 20
8.241627362989941
 30
0.0
 11
-17.362512288307958
 21
9.78323611456836
 31
0.0
  0
LINE
  8
0
 62
0
 10
-17.3625122883079
 20
9.78323611456836
 30
0.0
 11
-15.3843415237328
 21
9.780968894279704
 31
0.0
  0
POLYLINE
  8
0
 62
0
 70
0
 66
1
 10
0.0
 20
0.0
 30
0.0
  0
VERTEX
  8
0
 10
-15.3843415237328
 20
9.78096889427971
 30
0.0
  0
VERTEX
  8
0
 10
-15.4999243060093
 20
10.1119312036206
 30
0.0
  0
SEQEND
  8
0
  0
POLYLINE
  8
0
 62
0
 70
0
 66
1
 10
0.0
 20
0.0
 30
0.0
  0
VERTEX
  8
0
 10
-15.4999243060093
 20
10.1119312036206
 30
0.0
  0
VERTEX
  8
0
 10
-16.0691180659263
 20
10.4468275616896
 30
0.0
  0
SEQEND
  8
0
  0
LINE
  8
0
 62
0
 10
-16.069118065926283
 20
10.446827561689636
 30
0.0
 11
-17.361062047523795
 21
11.048584671616505
 31
0.0
  0
LINE
  8
0
 62
0
 10
-17.38514149162602
 20
-9.96095400821688
 30
0.0
 11
-17.38314790172555
 21
-8.22152829939015
 31
0.0
  0
LINE
  8
0
 62
0
 10
-17.3831479017255
 20
-8.221528299390151
 30
0.0
 11
-16.016259374207483
 21
-8.901813452960672
 31
0.0
  0
POLYLINE
  8
0
 62
0
 70
0
 66
1
 10
0.0
 20
0.0
 30
0.0
  0
VERTEX
  8
0
 10
-16.0162593742075
 20
-8.90181345296071
 30
0.0
  0
VERTEX
  8
0
 10
-15.1846693414026
 20
-9.43141599353241
 30
0.0
  0
SEQEND
  8
0
  0
POLYLINE
  8
0
 62
0
 70
0
 66
1
 10
0.0
 20
0.0
 30
0.0
  0
VERTEX
  8
0
 10
-15.1846693414026
 20
-9.43141599353241
 30
0.0
  0
VERTEX
  8
0
 10
-14.8067573395163
 20
-10.0150690371393
 30
0.0
  0
SEQEND
  8
0
  0
POLYLINE
  8
0
 62
0
 70
0
 66
1
 10
0.0
 20
0.0
 30
0.0
  0
VERTEX
  8
0
 10
-14.8067573395163
 20
-10.0150690371393
 30
0.0
  0
VERTEX
  8
0
 10
-14.5436962400048
 20
-9.62996784246675
 30
0.0
  0
SEQEND
  8
0
  0
POLYLINE
  8
0
 62
0
 70
0
 66
1
 10
0.0
 20
0.0
 30
0.0
  0
VERTEX
  8
0
 10
-14.5436962400048
 20
-9.62996784246675
 30
0.0
  0
VERTEX
  8
0
 10
-14.0420271979621
 20
-9.36451280571503
 30
0.0
  0
SEQEND
  8
0
  0
POLYLINE
  8
0
 62
0
 70
0
 66
1
 10
0.0
 20
0.0
 30
0.0
  0
VERTEX
  8
0
 10
-14.0420271979621
 20
-9.36451280571503
 30
0.0
  0
VERTEX
  8
0
 10
-13.5539463277505
 20
-9.05129288300217
 30
0.0
  0
SEQEND
  8
0
  0
POLYLINE
  8
0
 62
0
 70
0
 66
1
 10
0.0
 20
0.0
 30
0.0
  0
VERTEX
  8
0
 10
-13.5539463277505
 20
-9.05129288300217
 30
0.0
  0
VERTEX
  8
0
 10
-13.4032059742255
 20
-8.46483515820817
 30
0.0
  0
SEQEND
  8
0
  0
LINE
  8
0
 62
0
 10
-13.403205974225468
 20
-8.46483515820818
 30
0.0
 11
-13.403116066161044
 21
-8.38638953674197
 31
0.0
  0
LINE
  8
0
 62
0
 10
-13.403116066161
 20
-8.386389536741968
 30
0.0
 11
-12.3458179811014
 21
-8.387601326802024
 31
0.0
  0
POLYLINE
  8
0
 62
0
 70
0
 66
1
 10
0.0
 20
0.0
 30
0.0
  0
VERTEX
  8
0
 10
-12.3458179811014
 20
-8.38760132680202
 30
0.0
  0
VERTEX
  8
0
 10
-12.4359290388085
 20
-9.63920475579991
 30
0.0
  0
SEQEND
  8
0
  0
POLYLINE
  8
0
 62
0
 70
0
 66
1
 10
0.0
 20
0.0
 30
0.0
  0
VERTEX
  8
0
 10
-12.4359290388085
 20
-9.63920475579991
 30
0.0
  0
VERTEX
  8
0
 10
-12.7299045201863
 20
-10.2152665759639
 30
0.0
  0
SEQEND
  8
0
  0
POLYLINE
  8
0
 62
0
 70
0
 66
1
 10
0.0
 20
0.0
 30
0.0
  0
VERTEX
  8
0
 10
-12.7299045201863
 20
-10.2152665759639
 30
0.0
  0
VERTEX
  8
0
 10
-13.3987924688615
 20
-10.565796248342
 30
0.0
  0
SEQEND
  8
0
  0
POLYLINE
  8
0
 62
0
 70
0
 66
1
 10
0.0
 20
0.0
 30
0.0
  0
VERTEX
  8
0
 10
-13.3987924688615
 20
-10.565796248342
 30
0.0
  0
VERTEX
  8
0
 10
-14.1631783206269
 20
-10.9162164687014
 30
0.0
  0
SEQEND
  8
0
  0
POLYLINE
  8
0
 62
0
 70
0
 66
1
 10
0.0
 20
0.0
 30
0.0
  0
VERTEX
  8
0
 10
-14.1631783206269
 20
-10.9162164687014
 30
0.0
  0
VERTEX
  8
0
 10
-14.306784803421
 20
-11.2298312002619
 30
0.0
  0
SEQEND
  8
0
  0
LINE
  8
0
 62
0
 10
-14.306784803421
 20
-11.229831200261906
 30
0.0
 11
-12.386595015016
 21
-11.23203196741725
 31
0.0
  0
LINE
  8
0
 62
0
 10
-12.386595015015944
 20
-11.2320319674172
 30
0.0
 11
-12.388361883024178
 21
-12.7736407189957
 31
0.0
  0
LINE
  8
0
 62
0
 10
-12.3883618830242
 20
-12.773640718995678
 30
0.0
 11
-17.3883585990521
 21
-12.76791012475134
 31
0.0
  0
LINE
  8
0
 62
0
 10
-17.38835859905206
 20
-12.7679101247513
 30
0.0
 11
-17.38659173104383
 21
-11.2263013731729
 31
0.0
  0
LINE
  8
0
 62
0
 10
-17.3865917310439
 20
-11.22630137317291
 30
0.0
 11
-15.4084209664687
 21
-11.228568593461567
 31
0.0
  0
POLYLINE
  8
0
 62
0
 70
0
 66
1
 10
0.0
 20
0.0
 30
0.0
  0
VERTEX
  8
0
 10
-15.4084209664687
 20
-11.2285685934616
 30
0.0
  0
VERTEX
  8
0
 10
-15.5240037460127
 20
-10.8976038999364
 30
0.0
  0
SEQEND
  8
0
  0
POLYLINE
  8
0
 62
0
 70
0
 66
1
 10
0.0
 20
0.0
 30
0.0
  0
VERTEX
  8
0
 10
-15.5240037460127
 20
-10.8976038999364
 30
0.0
  0
VERTEX
  8
0
 10
-16.0931975066128
 20
-10.5627081379135
 30
0.0
  0
SEQEND
  8
0
  0
LINE
  8
0
 62
0
 10
-16.09319750661279
 20
-10.562708137913479
 30
0.0
 11
-17.38514149162601
 21
-9.960954008216891
 31
0.0
  0
POLYLINE
  8
0
 62
0
 70
0
 66
1
 10
0.0
 20
0.0
 30
0.0
  0
VERTEX
  8
0
 10
-12.379199186244
 20
-4.77910265578703
 30
0.0
  0
VERTEX
  8
0
 10
-12.3920439940163
 20
-4.53579652190561
 30
0.0
  0
SEQEND
  8
0
  0
POLYLINE
  8
0
 62
0
 70
0
 66
1
 10
0.0
 20
0.0
 30
0.0
  0
VERTEX
  8
0
 10
-12.422459299217635
 20
-4.306447987346054
 30
0.0
  0
VERTEX
  8
0
 10
-12.449437035737876
 20
-4.197053146393144
 30
0.0
  0
SEQEND
  8
0
  0
POLYLINE
  8
0
 62
0
 70
0
 66
1
 10
0.0
 20
0.0
 30
0.0
  0
VERTEX
  8
0
 10
-12.454016477488272
 20
-4.182024838541901
 30
0.0
  0
VERTEX
  8
0
 10
-12.7360457491652
 20
-3.67023489677218
 30
0.0
  0
SEQEND
  8
0
  0
POLYLINE
  8
0
 62
0
 70
0
 66
1
 10
0.0
 20
0.0
 30
0.0
  0
VERTEX
  8
0
 10
-12.7360457491652
 20
-3.67023489677218
 30
0.0
  0
VERTEX
  8
0
 10
-13.050496931070164
 20
-3.422429659409692
 30
0.0
  0
SEQEND
  8
0
  0
POLYLINE
  8
0
 62
0
 70
0
 66
1
 10
0.0
 20
0.0
 30
0.0
  0
VERTEX
  8
0
 10
-13.1364619035618
 20
-3.3781660163419
 30
0.0
  0
VERTEX
  8
0
 10
-13.6223664513651
 20
-3.28040579307283
 30
0.0
  0
SEQEND
  8
0
  0
POLYLINE
  8
0
 62
0
 70
0
 66
1
 10
0.0
 20
0.0
 30
0.0
  0
VERTEX
  8
0
 10
-13.6223664513651
 20
-3.28040579307283
 30
0.0
  0
VERTEX
  8
0
 10
-14.3832554311197
 20
-3.5557954728151
 30
0.0
  0
SEQEND
  8
0
  0
POLYLINE
  8
0
 62
0
 70
0
 66
1
 10
0.0
 20
0.0
 30
0.0
  0
VERTEX
  8
0
 10
-14.3832554311197
 20
-3.5557954728151
 30
0.0
  0
VERTEX
  8
0
 10
-14.553551859250883
 20
-3.754042294912038
 30
0.0
  0
SEQEND
  8
0
  0
POLYLINE
  8
0
 62
0
 70
0
 66
1
 10
0.0
 20
0.0
 30
0.0
  0
VERTEX
  8
0
 10
-14.5728056013351
 20
-3.78238716100859
 30
0.0
  0
VERTEX
  8
0
 10
-14.7181157147724
 20
-4.09429405395076
 30
0.0
  0
SEQEND
  8
0
  0
POLYLINE
  8
0
 62
0
 70
0
 66
1
 10
0.0
 20
0.0
 30
0.0
  0
VERTEX
  8
0
 10
-14.7181157147724
 20
-4.09429405395076
 30
0.0
  0
VERTEX
  8
0
 10
-15.1640025654359
 20
-3.3025129538026
 30
0.0
  0
SEQEND
  8
0
  0
POLYLINE
  8
0
 62
0
 70
0
 66
1
 10
0.0
 20
0.0
 30
0.0
  0
VERTEX
  8
0
 10
-15.1640025654359
 20
-3.3025129538026
 30
0.0
  0
VERTEX
  8
0
 10
-15.5184890951845
 20
-3.11025707369804
 30
0.0
  0
SEQEND
  8
0
  0
POLYLINE
  8
0
 62
0
 70
0
 66
1
 10
0.0
 20
0.0
 30
0.0
  0
VERTEX
  8
0
 10
-15.61670442824642
 20
-3.083089269073919
 30
0.0
  0
VERTEX
  8
0
 10
-15.9549778154496
 20
-3.0458081321321
 30
0.0
  0
SEQEND
  8
0
  0
POLYLINE
  8
0
 62
0
 70
0
 66
1
 10
0.0
 20
0.0
 30
0.0
  0
VERTEX
  8
0
 10
-15.9549778154496
 20
-3.0458081321321
 30
0.0
  0
VERTEX
  8
0
 10
-16.6543654941415
 20
-3.22577086723263
 30
0.0
  0
SEQEND
  8
0
  0
POLYLINE
  8
0
 62
0
 70
0
 66
1
 10
0.0
 20
0.0
 30
0.0
  0
VERTEX
  8
0
 10
-16.6543654941415
 20
-3.22577086723263
 30
0.0
  0
VERTEX
  8
0
 10
-16.882119826071786
 20
-3.3924411512784305
 30
0.0
  0
SEQEND
  8
0
  0
POLYLINE
  8
0
 62
0
 70
0
 66
1
 10
0.0
 20
0.0
 30
0.0
  0
VERTEX
  8
0
 10
-16.9325780555825
 20
-3.43947096464531
 30
0.0
  0
VERTEX
  8
0
 10
-17.1460647118218
 20
-3.71974976782107
 30
0.0
  0
SEQEND
  8
0
  0
POLYLINE
  8
0
 62
0
 70
0
 66
1
 10
0.0
 20
0.0
 30
0.0
  0
VERTEX
  8
0
 10
-17.1460647118218
 20
-3.71974976782107
 30
0.0
  0
VERTEX
  8
0
 10
-17.238172190357766
 20
-3.9466008568902495
 30
0.0
  0
SEQEND
  8
0
  0
POLYLINE
  8
0
 62
0
 70
0
 66
1
 10
0.0
 20
0.0
 30
0.0
  0
VERTEX
  8
0
 10
-17.2435473957752
 20
-3.96349868434204
 30
0.0
  0
VERTEX
  8
0
 10
-17.3104476668721
 20
-4.30619304865572
 30
0.0
  0
SEQEND
  8
0
  0
POLYLINE
  8
0
 62
0
 70
0
 66
1
 10
0.0
 20
0.0
 30
0.0
  0
VERTEX
  8
0
 10
-17.3104476668721
 20
-4.30619304865572
 30
0.0
  0
VERTEX
  8
0
 10
-17.3794538969501
 20
-4.9984748151551
 30
0.0
  0
SEQEND
  8
0
  0
POLYLINE
  8
0
 62
0
 70
0
 66
1
 10
0.0
 20
0.0
 30
0.0
  0
VERTEX
  8
0
 10
-12.3671281941394
 20
5.75295009630954
 30
0.0
  0
VERTEX
  8
0
 10
-12.384162419923308
 20
6.0822063905487385
 30
0.0
  0
SEQEND
  8
0
  0
POLYLINE
  8
0
 62
0
 70
0
 66
1
 10
0.0
 20
0.0
 30
0.0
  0
VERTEX
  8
0
 10
-12.420123773942889
 20
6.32573003104622
 30
0.0
  0
VERTEX
  8
0
 10
-12.7647344695576
 20
7.00852308771708
 30
0.0
  0
SEQEND
  8
0
  0
POLYLINE
  8
0
 62
0
 70
0
 66
1
 10
0.0
 20
0.0
 30
0.0
  0
VERTEX
  8
0
 10
-12.7647344695576
 20
7.00852308771708
 30
0.0
  0
VERTEX
  8
0
 10
-13.174753311090434
 20
7.290752648113407
 30
0.0
  0
SEQEND
  8
0
  0
POLYLINE
  8
0
 62
0
 70
0
 66
1
 10
0.0
 20
0.0
 30
0.0
  0
VERTEX
  8
0
 10
-13.2478318871437
 20
7.32370844388237
 30
0.0
  0
VERTEX
  8
0
 10
-13.8999964771038
 20
7.42933153595934
 30
0.0
  0
SEQEND
  8
0
  0
POLYLINE
  8
0
 62
0
 70
0
 66
1
 10
0.0
 20
0.0
 30
0.0
  0
VERTEX
  8
0
 10
-13.8999964771038
 20
7.42933153595934
 30
0.0
  0
VERTEX
  8
0
 10
-15.0840120455847
 20
6.97366368495984
 30
0.0
  0
SEQEND
  8
0
  0
POLYLINE
  8
0
 62
0
 70
0
 66
1
 10
0.0
 20
0.0
 30
0.0
  0
VERTEX
  8
0
 10
-15.0840120455847
 20
6.97366368495984
 30
0.0
  0
VERTEX
  8
0
 10
-15.4044168533369
 20
6.40019038899883
 30
0.0
  0
SEQEND
  8
0
  0
POLYLINE
  8
0
 62
0
 70
0
 66
1
 10
0.0
 20
0.0
 30
0.0
  0
VERTEX
  8
0
 10
-15.462637827048098
 20
6.182167346252059
 30
0.0
  0
VERTEX
  8
0
 10
-15.5119326981065
 20
5.58602303350259
 30
0.0
  0
SEQEND
  8
0
  0
POLYLINE
  8
0
 62
0
 70
0
 66
1
 10
0.0
 20
0.0
 30
0.0
  0
VERTEX
  8
0
 10
-16.0691180659263
 20
10.4468275616896
 30
0.0
  0
VERTEX
  8
0
 10
-15.715223395487849
 20
10.26603180964672
 30
0.0
  0
SEQEND
  8
0
  0
POLYLINE
  8
0
 62
0
 70
0
 66
1
 10
0.0
 20
0.0
 30
0.0
  0
VERTEX
  8
0
 10
-15.6984300247452
 20
10.2554078438827
 30
0.0
  0
VERTEX
  8
0
 10
-15.4999243060093
 20
10.1119312036206
 30
0.0
  0
SEQEND
  8
0
  0
POLYLINE
  8
0
 62
0
 70
0
 66
1
 10
0.0
 20
0.0
 30
0.0
  0
VERTEX
  8
0
 10
-15.4999243060093
 20
10.1119312036206
 30
0.0
  0
VERTEX
  8
0
 10
-15.3843415237328
 20
9.78096889427971
 30
0.0
  0
SEQEND
  8
0
  0
POLYLINE
  8
0
 62
0
 70
0
 66
1
 10
0.0
 20
0.0
 30
0.0
  0
VERTEX
  8
0
 10
-14.2827053606851
 20
9.77970628747937
 30
0.0
  0
VERTEX
  8
0
 10
-14.2415726374893
 20
9.9587163833397
 30
0.0
  0
SEQEND
  8
0
  0
POLYLINE
  8
0
 62
0
 70
0
 66
1
 10
0.0
 20
0.0
 30
0.0
  0
VERTEX
  8
0
 10
-14.228520947924528
 20
9.982857187104475
 30
0.0
  0
VERTEX
  8
0
 10
-14.1390988792573
 20
10.0933198269478
 30
0.0
  0
SEQEND
  8
0
  0
POLYLINE
  8
0
 62
0
 70
0
 66
1
 10
0.0
 20
0.0
 30
0.0
  0
VERTEX
  8
0
 10
-14.1390988792573
 20
10.0933198269478
 30
0.0
  0
VERTEX
  8
0
 10
-13.374713028175
 20
10.4437394512611
 30
0.0
  0
SEQEND
  8
0
  0
POLYLINE
  8
0
 62
0
 70
0
 66
1
 10
0.0
 20
0.0
 30
0.0
  0
VERTEX
  8
0
 10
-13.374713028175
 20
10.4437394512611
 30
0.0
  0
VERTEX
  8
0
 10
-12.7058250801829
 20
10.7942685275931
 30
0.0
  0
SEQEND
  8
0
  0
POLYLINE
  8
0
 62
0
 70
0
 66
1
 10
0.0
 20
0.0
 30
0.0
  0
VERTEX
  8
0
 10
-12.7058250801829
 20
10.7942685275931
 30
0.0
  0
VERTEX
  8
0
 10
-12.544519048457644
 20
11.001768417071277
 30
0.0
  0
SEQEND
  8
0
  0
POLYLINE
  8
0
 62
0
 70
0
 66
1
 10
0.0
 20
0.0
 30
0.0
  0
VERTEX
  8
0
 10
-12.5299106691618
 20
11.0268446570456
 30
0.0
  0
VERTEX
  8
0
 10
-12.4118495960725
 20
11.3703327319413
 30
0.0
  0
SEQEND
  8
0
  0
POLYLINE
  8
0
 62
0
 70
0
 66
1
 10
0.0
 20
0.0
 30
0.0
  0
VERTEX
  8
0
 10
-12.4118495960725
 20
11.3703327319413
 30
0.0
  0
VERTEX
  8
0
 10
-12.3447551535153
 20
11.8827035274361
 30
0.0
  0
SEQEND
  8
0
  0
POLYLINE
  8
0
 62
0
 70
0
 66
1
 10
0.0
 20
0.0
 30
0.0
  0
VERTEX
  8
0
 10
-12.329517426427987
 20
12.119002587678496
 30
0.0
  0
VERTEX
  8
0
 10
-12.3217385424643
 20
12.6219325846629
 30
0.0
  0
SEQEND
  8
0
  0
POLYLINE
  8
0
 62
0
 70
0
 66
1
 10
0.0
 20
0.0
 30
0.0
  0
VERTEX
  8
0
 10
-13.3791265342221
 20
12.5446999453489
 30
0.0
  0
VERTEX
  8
0
 10
-13.4170382669157
 20
12.2002712390239
 30
0.0
  0
SEQEND
  8
0
  0
POLYLINE
  8
0
 62
0
 70
0
 66
1
 10
0.0
 20
0.0
 30
0.0
  0
VERTEX
  8
0
 10
-13.423572708046075
 20
12.179955587292053
 30
0.0
  0
VERTEX
  8
0
 10
-13.5298668863808
 20
11.958243412647
 30
0.0
  0
SEQEND
  8
0
  0
POLYLINE
  8
0
 62
0
 70
0
 66
1
 10
0.0
 20
0.0
 30
0.0
  0
VERTEX
  8
0
 10
-13.5298668863808
 20
11.958243412647
 30
0.0
  0
VERTEX
  8
0
 10
-13.747182336404034
 20
11.771263061141086
 30
0.0
  0
SEQEND
  8
0
  0
POLYLINE
  8
0
 62
0
 70
0
 66
1
 10
0.0
 20
0.0
 30
0.0
  0
VERTEX
  8
0
 10
-13.764486172919412
 20
11.760595165742455
 30
0.0
  0
VERTEX
  8
0
 10
-14.0179477552261
 20
11.6450246820262
 30
0.0
  0
SEQEND
  8
0
  0
POLYLINE
  8
0
 62
0
 70
0
 66
1
 10
0.0
 20
0.0
 30
0.0
  0
VERTEX
  8
0
 10
-14.0179477552261
 20
11.6450246820262
 30
0.0
  0
VERTEX
  8
0
 10
-14.5196168000015
 20
11.3795672610903
 30
0.0
  0
SEQEND
  8
0
  0
POLYLINE
  8
0
 62
0
 70
0
 66
1
 10
0.0
 20
0.0
 30
0.0
  0
VERTEX
  8
0
 10
-14.5196168000015
 20
11.3795672610903
 30
0.0
  0
VERTEX
  8
0
 10
-14.667317136587
 20
11.2134704696305
 30
0.0
  0
SEQEND
  8
0
  0
POLYLINE
  8
0
 62
0
 70
0
 66
1
 10
0.0
 20
0.0
 30
0.0
  0
VERTEX
  8
0
 10
-14.699257498671649
 20
11.163619064673739
 30
0.0
  0
VERTEX
  8
0
 10
-14.7826778954141
 20
10.9944696426941
 30
0.0
  0
SEQEND
  8
0
  0
POLYLINE
  8
0
 62
0
 70
0
 66
1
 10
0.0
 20
0.0
 30
0.0
  0
VERTEX
  8
0
 10
-14.7826778954141
 20
10.9944696426941
 30
0.0
  0
VERTEX
  8
0
 10
-14.899134632055555
 20
11.253323699540424
 30
0.0
  0
SEQEND
  8
0
  0
POLYLINE
  8
0
 62
0
 70
0
 66
1
 10
0.0
 20
0.0
 30
0.0
  0
VERTEX
  8
0
 10
-14.9315346086978
 20
11.3075648408889
 30
0.0
  0
VERTEX
  8
0
 10
-15.1605898973004
 20
11.578122686301
 30
0.0
  0
SEQEND
  8
0
  0
POLYLINE
  8
0
 62
0
 70
0
 66
1
 10
0.0
 20
0.0
 30
0.0
  0
VERTEX
  8
0
 10
-15.1605898973004
 20
11.578122686301
 30
0.0
  0
VERTEX
  8
0
 10
-15.5013598580236
 20
11.8351614816574
 30
0.0
  0
SEQEND
  8
0
  0
POLYLINE
  8
0
 62
0
 70
0
 66
1
 10
0.0
 20
0.0
 30
0.0
  0
VERTEX
  8
0
 10
-15.642280949058122
 20
11.922410484579228
 30
0.0
  0
VERTEX
  8
0
 10
-15.9921799342041
 20
12.1077216505963
 30
0.0
  0
SEQEND
  8
0
  0
POLYLINE
  8
0
 62
0
 70
0
 66
1
 10
0.0
 20
0.0
 30
0.0
  0
VERTEX
  8
0
 10
-16.0931975066128
 20
-10.5627081379135
 30
0.0
  0
VERTEX
  8
0
 10
-15.739303860134768
 20
-10.743505106190517
 30
0.0
  0
SEQEND
  8
0
  0
POLYLINE
  8
0
 62
0
 70
0
 66
1
 10
0.0
 20
0.0
 30
0.0
  0
VERTEX
  8
0
 10
-15.7225094674811
 20
-10.7541296438586
 30
0.0
  0
VERTEX
  8
0
 10
-15.5240037460127
 20
-10.8976038999364
 30
0.0
  0
SEQEND
  8
0
  0
POLYLINE
  8
0
 62
0
 70
0
 66
1
 10
0.0
 20
0.0
 30
0.0
  0
VERTEX
  8
0
 10
-15.5240037460127
 20
-10.8976038999364
 30
0.0
  0
VERTEX
  8
0
 10
-15.4084209664687
 20
-11.2285685934616
 30
0.0
  0
SEQEND
  8
0
  0
POLYLINE
  8
0
 62
0
 70
0
 66
1
 10
0.0
 20
0.0
 30
0.0
  0
VERTEX
  8
0
 10
-14.306784803421
 20
-11.2298312002619
 30
0.0
  0
VERTEX
  8
0
 10
-14.270452027658411
 20
-11.061402590384084
 30
0.0
  0
SEQEND
  8
0
  0
POLYLINE
  8
0
 62
0
 70
0
 66
1
 10
0.0
 20
0.0
 30
0.0
  0
VERTEX
  8
0
 10
-14.265652078859
 20
-11.0508199123094
 30
0.0
  0
VERTEX
  8
0
 10
-14.1631783206269
 20
-10.9162164687014
 30
0.0
  0
SEQEND
  8
0
  0
POLYLINE
  8
0
 62
0
 70
0
 66
1
 10
0.0
 20
0.0
 30
0.0
  0
VERTEX
  8
0
 10
-14.1631783206269
 20
-10.9162164687014
 30
0.0
  0
VERTEX
  8
0
 10
-13.3987924688615
 20
-10.565796248342
 30
0.0
  0
SEQEND
  8
0
  0
POLYLINE
  8
0
 62
0
 70
0
 66
1
 10
0.0
 20
0.0
 30
0.0
  0
VERTEX
  8
0
 10
-13.3987924688615
 20
-10.565796248342
 30
0.0
  0
VERTEX
  8
0
 10
-12.7299045201863
 20
-10.2152665759639
 30
0.0
  0
SEQEND
  8
0
  0
POLYLINE
  8
0
 62
0
 70
0
 66
1
 10
0.0
 20
0.0
 30
0.0
  0
VERTEX
  8
0
 10
-12.7299045201863
 20
-10.2152665759639
 30
0.0
  0
VERTEX
  8
0
 10
-12.568598477060444
 20
-10.007767745475046
 30
0.0
  0
SEQEND
  8
0
  0
POLYLINE
  8
0
 62
0
 70
0
 66
1
 10
0.0
 20
0.0
 30
0.0
  0
VERTEX
  8
0
 10
-12.5539901105315
 20
-9.98269163860359
 30
0.0
  0
VERTEX
  8
0
 10
-12.4359290388085
 20
-9.63920475579991
 30
0.0
  0
SEQEND
  8
0
  0
POLYLINE
  8
0
 62
0
 70
0
 66
1
 10
0.0
 20
0.0
 30
0.0
  0
VERTEX
  8
0
 10
-12.4359290388085
 20
-9.63920475579991
 30
0.0
  0
VERTEX
  8
0
 10
-12.368834594885
 20
-9.12683276821306
 30
0.0
  0
SEQEND
  8
0
  0
POLYLINE
  8
0
 62
0
 70
0
 66
1
 10
0.0
 20
0.0
 30
0.0
  0
VERTEX
  8
0
 10
-12.353610157101333
 20
-8.890846726050642
 30
0.0
  0
VERTEX
  8
0
 10
-12.3458179811014
 20
-8.38760132680202
 30
0.0
  0
SEQEND
  8
0
  0
POLYLINE
  8
0
 62
0
 70
0
 66
1
 10
0.0
 20
0.0
 30
0.0
  0
VERTEX
  8
0
 10
-13.4032059742255
 20
-8.46483515820817
 30
0.0
  0
VERTEX
  8
0
 10
-13.42003041167538
 20
-8.716735047125859
 30
0.0
  0
SEQEND
  8
0
  0
POLYLINE
  8
0
 62
0
 70
0
 66
1
 10
0.0
 20
0.0
 30
0.0
  0
VERTEX
  8
0
 10
-13.4411177096516
 20
-8.80926624871734
 30
0.0
  0
VERTEX
  8
0
 10
-13.5539463277505
 20
-9.05129288300217
 30
0.0
  0
SEQEND
  8
0
  0
POLYLINE
  8
0
 62
0
 70
0
 66
1
 10
0.0
 20
0.0
 30
0.0
  0
VERTEX
  8
0
 10
-13.5539463277505
 20
-9.05129288300217
 30
0.0
  0
VERTEX
  8
0
 10
-14.0420271979621
 20
-9.36451280571503
 30
0.0
  0
SEQEND
  8
0
  0
POLYLINE
  8
0
 62
0
 70
0
 66
1
 10
0.0
 20
0.0
 30
0.0
  0
VERTEX
  8
0
 10
-14.0420271979621
 20
-9.36451280571503
 30
0.0
  0
VERTEX
  8
0
 10
-14.5436962400048
 20
-9.62996784246675
 30
0.0
  0
SEQEND
  8
0
  0
POLYLINE
  8
0
 62
0
 70
0
 66
1
 10
0.0
 20
0.0
 30
0.0
  0
VERTEX
  8
0
 10
-14.5436962400048
 20
-9.62996784246675
 30
0.0
  0
VERTEX
  8
0
 10
-14.6913965806892
 20
-9.79606821020284
 30
0.0
  0
SEQEND
  8
0
  0
POLYLINE
  8
0
 62
0
 70
0
 66
1
 10
0.0
 20
0.0
 30
0.0
  0
VERTEX
  8
0
 10
-14.723336212222343
 20
-9.84591886187261
 30
0.0
  0
VERTEX
  8
0
 10
-14.8067573395163
 20
-10.0150690371393
 30
0.0
  0
SEQEND
  8
0
  0
POLYLINE
  8
0
 62
0
 70
0
 66
1
 10
0.0
 20
0.0
 30
0.0
  0
VERTEX
  8
0
 10
-14.8067573395163
 20
-10.0150690371393
 30
0.0
  0
VERTEX
  8
0
 10
-14.9556140500675
 20
-9.70197145476021
 30
0.0
  0
SEQEND
  8
0
  0
POLYLINE
  8
0
 62
0
 70
0
 66
1
 10
0.0
 20
0.0
 30
0.0
  0
VERTEX
  8
0
 10
-14.997693087719139
 20
-9.641768942404891
 30
0.0
  0
VERTEX
  8
0
 10
-15.1846693414026
 20
-9.43141599353241
 30
0.0
  0
SEQEND
  8
0
  0
POLYLINE
  8
0
 62
0
 70
0
 66
1
 10
0.0
 20
0.0
 30
0.0
  0
VERTEX
  8
0
 10
-15.1846693414026
 20
-9.43141599353241
 30
0.0
  0
VERTEX
  8
0
 10
-15.5254392993933
 20
-9.17437481399176
 30
0.0
  0
SEQEND
  8
0
  0
POLYLINE
  8
0
 62
0
 70
0
 66
1
 10
0.0
 20
0.0
 30
0.0
  0
VERTEX
  8
0
 10
-15.65756347130169
 20
-9.092252378979794
 30
0.0
  0
VERTEX
  8
0
 10
-16.0162593742075
 20
-8.90181345296071
 30
0.0
  0
SEQEND
  8
0
  0
ENDBLK
  0
ENDSEC
  0
SECTION
  2
ENTITIES
  0
INSERT
  2
FACEFEAT
  8
0
 62
0
 10
0.0
 20
0.0
 30
0.0
  0
ENDSEC
  0
EOF
